<svg width="105" height="120" viewBox="0 0 105 120" fill="none" xmlns="http://www.w3.org/2000/svg">
<rect y="6" width="3" height="35" transform="rotate(-90 0 6)" fill="#606060"/>
<rect x="87" y="45.5" width="2" height="21" rx="1" fill="#888888"/>
<path d="M76 1.5H100C101.933 1.5 103.5 3.067 103.5 5V29C103.5 30.933 101.933 32.5 100 32.5H76C74.067 32.5 72.5 30.933 72.5 29V5C72.5 3.067 74.067 1.5 76 1.5Z" stroke="#5B5B5B" stroke-width="3"/>
<path d="M76 80.5H100C101.933 80.5 103.5 82.067 103.5 84V108C103.5 109.933 101.933 111.5 100 111.5H76C74.067 111.5 72.5 109.933 72.5 108V84C72.5 82.067 74.067 80.5 76 80.5Z" stroke="#5B5B5B" stroke-width="3"/>
<path d="M9.19 16.148V17.253H23.793V16.148H9.19ZM10.21 18.936V20.041H23.045V18.936H10.21ZM11.332 25.056V26.178H21.906V25.056H11.332ZM11.349 21.367V22.455H21.447V27.028H22.722V21.367H11.349ZM10.584 21.367V23.611C10.584 25.396 10.329 27.81 8.476 29.578C8.765 29.748 9.275 30.19 9.462 30.445C11.451 28.541 11.842 25.685 11.842 23.628V21.367H10.584ZM15.803 14.686V19.548H17.095V14.686H15.803ZM15.837 21.741V25.736H17.078V21.741H15.837ZM15.825 43.875L15.84 45.09C17.475 45.27 20.385 45.27 21.99 45.09V43.875C20.505 44.1 17.46 44.16 15.825 43.875ZM16.41 49.995L15.33 49.89C15.165 50.61 15.09 51.15 15.09 51.645C15.09 53.055 16.215 53.895 18.72 53.895C20.28 53.895 21.54 53.775 22.47 53.58L22.44 52.32C21.24 52.605 20.07 52.725 18.735 52.725C16.68 52.725 16.2 52.05 16.2 51.36C16.2 50.955 16.275 50.535 16.41 49.995ZM12.975 42.72L11.64 42.615C11.625 42.945 11.58 43.32 11.535 43.665C11.355 44.91 10.86 47.475 10.86 49.68C10.86 51.72 11.115 53.445 11.415 54.51L12.48 54.435C12.465 54.27 12.45 54.06 12.435 53.91C12.435 53.73 12.465 53.445 12.51 53.235C12.645 52.515 13.2 50.94 13.575 49.875L12.945 49.38C12.69 49.995 12.345 50.895 12.09 51.57C12 50.835 11.955 50.205 11.955 49.485C11.955 47.79 12.42 45.12 12.705 43.725C12.765 43.455 12.885 42.975 12.975 42.72ZM23.181 77.237C22.501 78.002 21.311 79.107 20.461 79.753L21.243 80.365C22.127 79.77 23.283 78.818 24.201 77.985L23.181 77.237ZM18.965 68.703C18.761 69.383 18.353 70.335 18.03 70.964L19.101 71.236C19.492 70.675 19.968 69.791 20.376 68.975L18.965 68.703ZM16.653 73.973H22.382V75.452H16.653V73.973ZM16.653 71.508H22.382V72.987H16.653V71.508ZM15.48 70.488V76.489H23.606V70.488H15.48ZM18.914 75.928V83C18.914 83.187 18.863 83.238 18.642 83.238C18.438 83.255 17.758 83.255 16.993 83.238C17.146 83.561 17.299 84.037 17.333 84.36C18.404 84.36 19.084 84.343 19.526 84.156C19.951 83.969 20.07 83.646 20.07 83V75.928H18.914ZM14.834 77.968V79.039H17.673V77.968H14.834ZM17.384 77.968V78.172C16.891 80.399 15.667 81.963 14.069 82.796C14.324 82.983 14.715 83.408 14.868 83.68C16.568 82.711 17.911 80.926 18.523 78.223L17.826 77.934L17.605 77.968H17.384ZM19.917 76.013L19.22 76.88C19.679 79.09 20.903 82.167 23.81 83.663C23.98 83.34 24.354 82.864 24.592 82.626C21.617 81.334 20.393 78.41 19.917 76.013ZM11.332 68.737C10.89 69.859 10.091 71.525 9.479 72.511L10.346 72.885C11.009 71.95 11.808 70.42 12.454 69.162L11.332 68.737ZM13.236 70.675C12.301 72.46 10.703 74.993 9.428 76.506L10.21 76.948C11.485 75.469 13.134 73.055 14.307 71.168L13.236 70.675ZM8.612 72.273C9.513 73.14 10.533 74.347 10.958 75.163L11.689 74.211C11.247 73.429 10.21 72.29 9.292 71.457L8.612 72.273ZM12.573 74.568C13.253 75.69 13.916 77.203 14.137 78.155L15.14 77.696C14.902 76.761 14.205 75.299 13.491 74.177L12.573 74.568ZM8.476 76.251L8.612 77.39C10.159 77.288 12.199 77.169 14.222 77.033V75.962C12.08 76.081 9.955 76.183 8.476 76.251ZM13.015 78.682C13.423 79.651 13.78 80.926 13.865 81.742L14.851 81.436C14.749 80.62 14.392 79.362 13.95 78.393L13.015 78.682ZM9.496 78.444C9.309 79.923 8.986 81.453 8.442 82.49C8.697 82.609 9.207 82.83 9.411 82.966C9.955 81.878 10.346 80.246 10.567 78.631L9.496 78.444ZM11.298 76.744V84.36H12.42V76.744H11.298ZM15.86 97.36L14.548 97.248C14.5 98 14.276 98.96 13.924 99.84C13.38 101.2 12.308 103.056 10.004 105.264L11.108 106.08C11.636 105.424 12.084 104.848 12.548 104.4C13.284 103.744 14.292 103.232 15.316 103.232C16.148 103.232 16.788 103.664 16.804 104.592C16.82 105.424 16.804 107.072 16.74 107.92H17.972C17.956 106.928 17.924 105.088 17.924 104.256C17.924 102.96 16.964 102.224 15.732 102.224C15.028 102.224 14.116 102.448 13.492 102.816C14.132 101.984 14.724 100.912 15.124 99.936C15.54 98.864 15.716 97.984 15.86 97.36ZM10.372 99.088V100.288C11.268 100.352 12.324 100.384 13.012 100.384C15.044 100.384 18.02 100.24 20.26 99.904V98.72C18.004 99.12 15.236 99.248 13.076 99.248C12.34 99.248 11.236 99.2 10.372 99.088ZM22.596 102.944L22.084 101.76C21.636 101.984 21.236 102.16 20.756 102.384C19.7 102.88 18.404 103.376 16.884 104.16C14.98 105.136 12.996 106.336 12.996 108.288C12.996 110.224 14.836 110.72 17.108 110.72C18.5 110.72 20.276 110.592 21.492 110.448L21.54 109.152C20.132 109.408 18.404 109.552 17.156 109.552C15.508 109.552 14.276 109.36 14.276 108.112C14.276 107.008 15.396 106.144 16.98 105.312C18.532 104.512 20.052 103.904 21.188 103.456C21.62 103.296 22.196 103.072 22.596 102.944Z" fill="#4F4F4F"/>
<path d="M81.0012 95.7116L86.658 101.368" stroke="#5B5B5B" stroke-width="2" stroke-linecap="round"/>
<path d="M86.6788 101.476L95.4217 92.423" stroke="#5B5B5B" stroke-width="2" stroke-linecap="round"/>
</svg>
